<?xml version="1.0" encoding="utf-8"?>
<!-- Generator: Adobe Illustrator 15.1.0, SVG Export Plug-In . SVG Version: 6.00 Build 0)  -->
<!DOCTYPE svg PUBLIC "-//W3C//DTD SVG 1.1//EN" "http://www.w3.org/Graphics/SVG/1.1/DTD/svg11.dtd">
<svg version="1.1" id="Layer_1" xmlns="http://www.w3.org/2000/svg" xmlns:xlink="http://www.w3.org/1999/xlink" x="0px" y="0px"
	 width="800px" height="200px" viewBox="0 0 800 200" enable-background="new 0 0 800 200" xml:space="preserve">
<path fill="#FFFFFF" d="M469.778,35.208l-33.807-0.504c0,0,5.7-30.606-21.302-30.606c-27.01,0-36.012,0-36.012,0
	s-21,0.808-14.702,29.956h-31.854c-15.648,0-15.556,15.554-15.556,15.554v11.604c0,7.956,6.444,14.4,14.4,14.4h138.831
	c7.956,0,14.399-6.446,14.399-14.4V49.608C484.178,41.654,477.732,35.208,469.778,35.208z M416.764,26.472h-33.008
	c-3.642,0-6.598-2.954-6.598-6.6s2.956-6.602,6.598-6.602h33.006c3.648,0,6.604,2.954,6.604,6.602S420.412,26.472,416.764,26.472z"
	/>
<path fill="#FFFFFF" d="M324.376,82.476v99.228c0,9.146,7.416,16.558,16.572,16.558l117.628,0.01
	c9.144-0.01,16.558-7.422,16.558-16.567l0.01-99.228H324.376L324.376,82.476z M363.222,176.898c0,3.537-2.864,6.403-6.4,6.403
	c-3.54,0-6.404-2.868-6.404-6.403V100.09c0-3.542,2.866-6.408,6.404-6.408c3.536,0,6.4,2.866,6.4,6.408V176.898z M408.64,176.898
	c0,3.537-2.865,6.403-6.403,6.403c-3.536,0-6.402-2.868-6.402-6.403V100.09c0-3.542,2.866-6.408,6.402-6.408
	c3.54,0,6.403,2.866,6.403,6.408V176.898z M452.05,176c0,3.54-2.866,6.398-6.408,6.398c-3.533,0-6.397-2.86-6.397-6.398V99.184
	c0-3.54,2.866-6.404,6.397-6.404c3.542,0,6.408,2.864,6.408,6.404V176z"/>
</svg>
